<svg width="21" height="21" viewBox="0 0 21 21" fill="none" xmlns="http://www.w3.org/2000/svg">
<path fill-rule="evenodd" clip-rule="evenodd" d="M9.52154 1.46485C5.0725 1.46485 1.46485 5.0725 1.46485 9.52154C1.46485 13.9706 5.0725 17.5782 9.52154 17.5782C13.9706 17.5782 17.5782 13.9706 17.5782 9.52154C17.5782 9.11703 17.9061 8.78911 18.3107 8.78911C18.7152 8.78911 19.0431 9.11703 19.0431 9.52154C19.0431 14.7796 14.7796 19.0431 9.52154 19.0431C4.26349 19.0431 0 14.7796 0 9.52154C0 4.26349 4.26349 0 9.52154 0C9.92605 0 10.254 0.327918 10.254 0.732426C10.254 1.13693 9.92605 1.46485 9.52154 1.46485Z" fill="#2B3A4E"/>
<path fill-rule="evenodd" clip-rule="evenodd" d="M18.6555 16.3281C17.9041 16.3224 17.2279 16.6188 16.8154 17.1915C16.4032 17.7637 16.3344 18.5002 16.5702 19.214L16.5704 19.2147C16.8653 20.1048 17.4413 20.8662 18.3256 20.9847C19.2098 21.1032 19.9655 20.5205 20.4832 19.7412L20.4832 19.7411C20.9751 19.0004 21.1837 18.1306 20.7837 17.3837C20.3839 16.6372 19.5454 16.3288 18.6555 16.3281ZM17.961 18.7544C18.1837 19.4264 18.4573 19.5244 18.5202 19.5328C18.5832 19.5413 18.8725 19.5185 19.2629 18.9307M17.961 18.7544C17.8454 18.4039 17.9132 18.1737 18.004 18.0477C18.0938 17.923 18.2854 17.7897 18.646 17.7929L18.646 17.7929H18.6524C19.2653 17.7929 19.4506 17.9974 19.4923 18.0752C19.5342 18.1535 19.6012 18.4214 19.263 18.9306" fill="#2B3A4E"/>
<path fill-rule="evenodd" clip-rule="evenodd" d="M11.7188 3.66211C11.7188 3.25761 12.0467 2.92969 12.4512 2.92969H18.3106C18.7152 2.92969 19.0431 3.25761 19.0431 3.66211C19.0431 4.06662 18.7152 4.39454 18.3106 4.39454H12.4512C12.0467 4.39454 11.7188 4.06662 11.7188 3.66211Z" fill="#2B3A4E"/>
<path fill-rule="evenodd" clip-rule="evenodd" d="M11.7188 6.5918C11.7188 6.18729 12.0467 5.85938 12.4512 5.85938H15.3809C15.7855 5.85938 16.1134 6.18729 16.1134 6.5918C16.1134 6.99631 15.7855 7.32423 15.3809 7.32423H12.4512C12.0467 7.32423 11.7188 6.99631 11.7188 6.5918Z" fill="#2B3A4E"/>
</svg>
