<svg width="21" height="21" viewBox="0 0 21 27" fill="none" xmlns="http://www.w3.org/2000/svg">
<path d="M21.0299 15H8.8155L9.08821 16.5H20.2723C20.914 16.5 21.3896 17.1704 21.2474 17.8743L21.0175 19.0123C21.7963 19.4376 22.3333 20.3357 22.3333 21.375C22.3333 22.8376 21.27 24.0208 19.9657 23.9997C18.723 23.9796 17.7011 22.8451 17.6675 21.4475C17.6492 20.6841 17.9211 19.9921 18.3677 19.4999H9.63234C10.0647 19.9765 10.3333 20.6403 10.3333 21.375C10.3333 22.8662 9.228 24.0671 7.88875 23.9971C6.69958 23.935 5.73246 22.854 5.66996 21.5166C5.62171 20.4838 6.10479 19.5734 6.83875 19.0985L3.91179 3H1C0.447708 3 0 2.49633 0 1.875V1.125C0 0.503672 0.447708 0 1 0H5.27204C5.74708 0 6.15654 0.375984 6.25175 0.899531L6.63367 3H22.9996C23.6413 3 24.1169 3.67036 23.9747 4.37433L22.005 14.1243C21.9015 14.6365 21.4968 15 21.0299 15ZM17 7.875H15V6C15 5.58576 14.7015 5.25 14.3333 5.25H13.6667C13.2985 5.25 13 5.58576 13 6V7.875H11C10.6318 7.875 10.3333 8.21076 10.3333 8.625V9.375C10.3333 9.78923 10.6318 10.125 11 10.125H13V12C13 12.4142 13.2985 12.75 13.6667 12.75H14.3333C14.7015 12.75 15 12.4142 15 12V10.125H17C17.3682 10.125 17.6667 9.78923 17.6667 9.375V8.625C17.6667 8.21076 17.3682 7.875 17 7.875Z" fill="#2b3a4e"/>
<!-- <path d="M6.738 35.738C6.786 35.738 6.834 35.748 6.882 35.768C6.93 35.784 6.976 35.814 7.02 35.858L7.824 36.704C7.472 37.164 7.03 37.512 6.498 37.748C5.97 37.98 5.344 38.096 4.62 38.096C3.956 38.096 3.36 37.984 2.832 37.76C2.308 37.532 1.862 37.22 1.494 36.824C1.13 36.424 0.85 35.952 0.654 35.408C0.458 34.86 0.36 34.266 0.36 33.626C0.36 32.974 0.466 32.376 0.678 31.832C0.89 31.284 1.188 30.812 1.572 30.416C1.956 30.02 2.416 29.712 2.952 29.492C3.488 29.272 4.078 29.162 4.722 29.162C5.05 29.162 5.358 29.192 5.646 29.252C5.938 29.308 6.21 29.388 6.462 29.492C6.714 29.592 6.946 29.714 7.158 29.858C7.37 30.002 7.558 30.158 7.722 30.326L7.038 31.244C6.994 31.3 6.942 31.352 6.882 31.4C6.822 31.444 6.738 31.466 6.63 31.466C6.558 31.466 6.49 31.45 6.426 31.418C6.362 31.386 6.294 31.348 6.222 31.304C6.15 31.256 6.07 31.206 5.982 31.154C5.898 31.098 5.796 31.048 5.676 31.004C5.56 30.956 5.422 30.916 5.262 30.884C5.106 30.852 4.922 30.836 4.71 30.836C4.374 30.836 4.066 30.898 3.786 31.022C3.51 31.146 3.27 31.328 3.066 31.568C2.866 31.804 2.71 32.096 2.598 32.444C2.49 32.788 2.436 33.182 2.436 33.626C2.436 34.074 2.496 34.472 2.616 34.82C2.74 35.168 2.906 35.462 3.114 35.702C3.326 35.938 3.572 36.118 3.852 36.242C4.132 36.366 4.432 36.428 4.752 36.428C4.936 36.428 5.104 36.42 5.256 36.404C5.408 36.384 5.55 36.354 5.682 36.314C5.814 36.27 5.938 36.214 6.054 36.146C6.17 36.074 6.288 35.984 6.408 35.876C6.456 35.836 6.508 35.804 6.564 35.78C6.62 35.752 6.678 35.738 6.738 35.738ZM11.7033 35.468C11.3313 35.484 11.0253 35.516 10.7853 35.564C10.5453 35.612 10.3553 35.672 10.2153 35.744C10.0753 35.816 9.97728 35.898 9.92128 35.99C9.86928 36.082 9.84328 36.182 9.84328 36.29C9.84328 36.502 9.90128 36.652 10.0173 36.74C10.1333 36.824 10.3033 36.866 10.5273 36.866C10.7673 36.866 10.9773 36.824 11.1573 36.74C11.3373 36.656 11.5193 36.52 11.7033 36.332V35.468ZM8.35528 32.642C8.73128 32.31 9.14728 32.064 9.60328 31.904C10.0633 31.74 10.5553 31.658 11.0793 31.658C11.4553 31.658 11.7933 31.72 12.0933 31.844C12.3973 31.964 12.6533 32.134 12.8613 32.354C13.0733 32.57 13.2353 32.828 13.3473 33.128C13.4593 33.428 13.5153 33.756 13.5153 34.112V38H12.6633C12.4873 38 12.3533 37.976 12.2613 37.928C12.1733 37.88 12.0993 37.78 12.0393 37.628L11.9073 37.286C11.7513 37.418 11.6013 37.534 11.4573 37.634C11.3133 37.734 11.1633 37.82 11.0073 37.892C10.8553 37.96 10.6913 38.01 10.5153 38.042C10.3433 38.078 10.1513 38.096 9.93928 38.096C9.65528 38.096 9.39728 38.06 9.16528 37.988C8.93328 37.912 8.73528 37.802 8.57128 37.658C8.41128 37.514 8.28728 37.336 8.19928 37.124C8.11128 36.908 8.06728 36.66 8.06728 36.38C8.06728 36.156 8.12328 35.93 8.23528 35.702C8.34728 35.47 8.54128 35.26 8.81728 35.072C9.09328 34.88 9.46528 34.72 9.93328 34.592C10.4013 34.464 10.9913 34.392 11.7033 34.376V34.112C11.7033 33.748 11.6273 33.486 11.4753 33.326C11.3273 33.162 11.1153 33.08 10.8393 33.08C10.6193 33.08 10.4393 33.104 10.2993 33.152C10.1593 33.2 10.0333 33.254 9.92128 33.314C9.81328 33.374 9.70728 33.428 9.60328 33.476C9.49928 33.524 9.37528 33.548 9.23128 33.548C9.10328 33.548 8.99528 33.516 8.90728 33.452C8.81928 33.388 8.74728 33.312 8.69128 33.224L8.35528 32.642ZM16.4442 32.738C16.6362 32.402 16.8562 32.138 17.1042 31.946C17.3562 31.754 17.6442 31.658 17.9682 31.658C18.2482 31.658 18.4762 31.724 18.6522 31.856L18.5322 33.224C18.5122 33.312 18.4782 33.372 18.4302 33.404C18.3862 33.436 18.3242 33.452 18.2442 33.452C18.2122 33.452 18.1702 33.45 18.1182 33.446C18.0662 33.442 18.0122 33.438 17.9562 33.434C17.9002 33.426 17.8422 33.42 17.7822 33.416C17.7262 33.408 17.6742 33.404 17.6262 33.404C17.3542 33.404 17.1362 33.476 16.9722 33.62C16.8122 33.764 16.6762 33.964 16.5642 34.22V38H14.7042V31.778H15.8082C15.9002 31.778 15.9762 31.786 16.0362 31.802C16.1002 31.818 16.1522 31.844 16.1922 31.88C16.2362 31.912 16.2682 31.956 16.2882 32.012C16.3122 32.068 16.3322 32.136 16.3482 32.216L16.4442 32.738ZM21.5123 38.096C21.2163 38.096 20.9543 38.054 20.7263 37.97C20.5023 37.882 20.3123 37.76 20.1562 37.604C20.0043 37.444 19.8883 37.252 19.8083 37.028C19.7283 36.804 19.6883 36.554 19.6883 36.278V33.062H19.1603C19.0643 33.062 18.9823 33.032 18.9143 32.972C18.8463 32.908 18.8123 32.816 18.8123 32.696V31.97L19.8023 31.778L20.1683 30.26C20.2163 30.068 20.3523 29.972 20.5763 29.972H21.5483V31.79H23.0903V33.062H21.5483V36.152C21.5483 36.296 21.5823 36.416 21.6503 36.512C21.7223 36.604 21.8243 36.65 21.9563 36.65C22.0243 36.65 22.0803 36.644 22.1243 36.632C22.1723 36.616 22.2123 36.6 22.2443 36.584C22.2803 36.564 22.3123 36.548 22.3403 36.536C22.3723 36.52 22.4083 36.512 22.4483 36.512C22.5043 36.512 22.5483 36.526 22.5803 36.554C22.6163 36.578 22.6523 36.618 22.6883 36.674L23.2523 37.556C23.0123 37.736 22.7423 37.872 22.4423 37.964C22.1423 38.052 21.8323 38.096 21.5123 38.096Z" fill="#846046"/> -->
</svg>
