<svg width="21" height="21" viewBox="0 0 21 21" fill="none" xmlns="http://www.w3.org/2000/svg">
<path d="M10.5 19.9012C10.1972 19.9012 9.90419 19.8621 9.66 19.7742C5.92884 18.4947 0 13.9528 0 7.24261C0 3.824 2.76419 1.05005 6.16326 1.05005C7.81395 1.05005 9.35721 1.6947 10.5 2.84726C11.6428 1.6947 13.186 1.05005 14.8367 1.05005C18.2358 1.05005 21 3.83377 21 7.24261C21 13.9626 15.0712 18.4947 11.34 19.7742C11.0958 19.8621 10.8028 19.9012 10.5 19.9012ZM6.16326 2.51517C3.57488 2.51517 1.46512 4.6347 1.46512 7.24261C1.46512 13.9138 7.88233 17.6254 10.1386 18.397C10.3144 18.4556 10.6953 18.4556 10.8712 18.397C13.1177 17.6254 19.5447 13.9235 19.5447 7.24261C19.5447 4.6347 17.4349 2.51517 14.8465 2.51517C13.3619 2.51517 11.9847 3.20865 11.0958 4.41005C10.8223 4.78121 10.1972 4.78121 9.92372 4.41005C9.01535 3.19889 7.64791 2.51517 6.16326 2.51517Z" fill="#2B3A4E"/>
</svg>
