<svg width="21" height="21" viewBox="0 0 21 21" fill="none" xmlns="http://www.w3.org/2000/svg">
<path fill-rule="evenodd" clip-rule="evenodd" d="M10.5016 12.5162C10.9061 12.5162 11.2341 12.8442 11.2341 13.2487V16.1785C11.2341 16.583 10.9061 16.911 10.5016 16.911C10.0971 16.911 9.76917 16.583 9.76917 16.1785V13.2487C9.76917 12.8442 10.0971 12.5162 10.5016 12.5162Z" fill="#2b3a4e"/>
<path fill-rule="evenodd" clip-rule="evenodd" d="M12.8445 0.791863C12.8448 0.792088 12.8451 0.792314 12.8454 0.792539L19.6137 6.20333C20.1153 6.60723 20.4912 7.19876 20.7213 7.80186C20.9515 8.40516 21.0652 9.09715 20.9613 9.73377L20.9608 9.73646L19.6619 17.5102L19.6616 17.5124C19.3675 19.2403 17.7255 20.6318 15.9706 20.6318H5.03267C3.26872 20.6318 1.63549 19.2506 1.34158 17.5116L0.0432303 9.74094C0.0430895 9.74013 0.0429491 9.73932 0.042809 9.7385C-0.0673742 9.09994 0.0440852 8.40624 0.274666 7.80186C0.505396 7.19709 0.88462 6.60514 1.39197 6.20141C1.39237 6.20109 1.39277 6.20077 1.39317 6.20045L8.15858 0.782257C9.46272 -0.263207 11.5331 -0.261484 12.8445 0.791863ZM11.9276 1.93435C11.1492 1.30871 9.84103 1.31085 9.07502 1.9251L2.3047 7.34722C2.05091 7.54896 1.80552 7.89897 1.64335 8.32404C1.48114 8.74921 1.43145 9.17272 1.48658 9.49056L1.48736 9.49504L2.786 17.2675C2.78597 17.2673 2.78603 17.2676 2.786 17.2675C2.96112 18.3018 3.98417 19.1669 5.03267 19.1669H15.9706C17.0085 19.1669 18.042 18.2934 18.2172 17.2677C18.2173 17.2673 18.2174 17.267 18.2174 17.2666L19.5155 9.49773C19.5156 9.49729 19.5156 9.49684 19.5157 9.4964C19.5677 9.1761 19.5153 8.75047 19.3526 8.32404C19.1898 7.89732 18.9459 7.54674 18.6959 7.34503C18.6956 7.3448 18.6953 7.34457 18.695 7.34433L11.9291 1.93556L11.9276 1.93435Z" fill="#2b3a4e"/>
</svg>
