<svg width="21" height="21" viewBox="0 0 21 21" fill="none" xmlns="http://www.w3.org/2000/svg">
<path d="M10.2931 9.16148L10.3417 9.16319L10.3786 9.15583C10.3798 9.15574 10.3814 9.15564 10.3832 9.15554C10.3953 9.15486 10.413 9.15435 10.4359 9.15435C10.4817 9.15435 10.5376 9.15638 10.5913 9.16051L10.6168 9.16248L10.6423 9.1613C12.7985 9.06229 14.4895 7.29085 14.5005 5.11901V5.1169C14.5005 2.88538 12.6773 1.06221 10.4458 1.06221C8.21423 1.06221 6.39107 2.88538 6.39107 5.1169C6.39107 7.31337 8.10704 9.08459 10.2931 9.16148ZM10.6035 9.80728H10.6033H10.6032H10.603H10.6028H10.6026H10.6025H10.6023H10.6021H10.602H10.6018H10.6016H10.6014H10.6013H10.6011H10.6009H10.6008H10.6006H10.6004H10.6003H10.6001H10.5999H10.5997H10.5996H10.5994H10.5992H10.5991H10.5989H10.5987H10.5986H10.5984H10.5982H10.5981H10.5979H10.5977H10.5976H10.5974H10.5972H10.5971H10.5969H10.5967H10.5966H10.5964H10.5963H10.5961H10.5959H10.5958H10.5956H10.5954H10.5953H10.5951H10.5949H10.5948H10.5946H10.5945H10.5943H10.5941H10.594H10.5938H10.5936H10.5935H10.5933H10.5932H10.593H10.5928H10.5927H10.5925H10.5924H10.5922H10.592H10.5919H10.5917H10.5916H10.5914H10.5912H10.5911H10.5909H10.5908H10.5906H10.5904H10.5903H10.5901H10.59H10.5898H10.5897H10.5895H10.5893H10.5892H10.589H10.5889H10.5887H10.5886H10.5884H10.5882H10.5881H10.5879H10.5878H10.5876H10.5875H10.5873H10.5872H10.587H10.5868H10.5867H10.5865H10.5864H10.5862H10.5861H10.5859H10.5858H10.5856H10.5855H10.5853H10.5852H10.585H10.5848H10.5847H10.5845H10.5844H10.5842H10.5841H10.5839H10.5838H10.5836H10.5835H10.5833H10.5832H10.583H10.5829H10.5827H10.5826H10.5824H10.5823H10.5821H10.582H10.5818H10.5817H10.5815H10.5814H10.5812H10.5811H10.5809H10.5808H10.5806H10.5805H10.5803H10.5802H10.58H10.5799H10.5797H10.5796H10.5794H10.5793H10.5791H10.579H10.5788H10.5787H10.5785H10.5784H10.5782H10.5781H10.5779H10.5778H10.5776H10.5775H10.5773H10.5772H10.577H10.5769H10.5767H10.5766H10.5764H10.5763H10.5761H10.576H10.5758H10.5757H10.5756H10.5754H10.5753H10.5751H10.575H10.5748H10.5747H10.5745H10.5744H10.5742H10.5741H10.5739H10.5738H10.5736H10.5735H10.5734H10.5732H10.5731H10.5729H10.5728H10.5726H10.5725H10.5723H10.5722H10.572H10.5719H10.5717H10.5716H10.5715H10.5713H10.5712H10.571H10.5709H10.5707H10.5706H10.5704H10.5703H10.5701H10.57H10.5699H10.5697H10.5696H10.5694H10.5693H10.5691H10.569H10.5688H10.5687H10.5686H10.5684H10.5683H10.5681H10.568H10.5678H10.5677H10.5675H10.5674H10.5672H10.5671H10.567H10.5668H10.5667H10.5665H10.5664H10.5662H10.5661H10.5659H10.5658H10.5657H10.5655H10.5654H10.5652H10.5651H10.5649H10.5648H10.5646H10.5645H10.5644H10.5642H10.5641H10.5639H10.5638H10.5636H10.5635H10.5633H10.5632H10.5631H10.5629H10.5628H10.5626H10.5625H10.5623H10.5622H10.562H10.5619H10.5618H10.5616H10.5615H10.5613H10.5612H10.561H10.5609H10.5607H10.5606H10.5605H10.5603H10.5602H10.56H10.5599H10.5597H10.5596H10.5594H10.5593H10.5592H10.559H10.5589H10.5587H10.5586H10.5584H10.5583H10.5581H10.558H10.5578H10.5577H10.5576H10.5574H10.5573H10.5572C10.4802 9.7972 10.3994 9.79797 10.3261 9.80632C7.7064 9.70789 5.74552 7.64876 5.74552 5.1169C5.74552 2.5273 7.85616 0.416667 10.4458 0.416667C13.0351 0.416667 15.1456 2.52693 15.146 5.11622C15.1365 7.66237 13.1467 9.72251 10.6262 9.80728H10.6262H10.6262H10.6261H10.626H10.626H10.6259H10.6259H10.6258H10.6257H10.6257H10.6256H10.6256H10.6255H10.6255H10.6254H10.6253H10.6253H10.6252H10.6252H10.6251H10.6251H10.625H10.6249H10.6249H10.6248H10.6248H10.6247H10.6247H10.6246H10.6245H10.6245H10.6244H10.6244H10.6243H10.6242H10.6242H10.6241H10.6241H10.624H10.624H10.6239H10.6238H10.6238H10.6237H10.6237H10.6236H10.6236H10.6235H10.6234H10.6234H10.6233H10.6233H10.6232H10.6231H10.6231H10.623H10.623H10.6229H10.6229H10.6228H10.6227H10.6227H10.6226H10.6226H10.6225H10.6225H10.6224H10.6223H10.6223H10.6222H10.6222H10.6221H10.6221H10.622H10.6219H10.6219H10.6218H10.6218H10.6217H10.6216H10.6216H10.6215H10.6215H10.6214H10.6214H10.6213H10.6212H10.6212H10.6211H10.6211H10.621H10.621H10.6209H10.6208H10.6208H10.6207H10.6207H10.6206H10.6205H10.6205H10.6204H10.6204H10.6203H10.6203H10.6202H10.6201H10.6201H10.62H10.62H10.6199H10.6199H10.6198H10.6197H10.6197H10.6196H10.6196H10.6195H10.6195H10.6194H10.6193H10.6193H10.6192H10.6192H10.6191H10.619H10.619H10.6189H10.6189H10.6188H10.6188H10.6187H10.6186H10.6186H10.6185H10.6185H10.6184H10.6184H10.6183H10.6182H10.6182H10.6181H10.6181H10.618H10.6179H10.6179H10.6178H10.6178H10.6177H10.6177H10.6176H10.6175H10.6175H10.6174H10.6174H10.6173H10.6173H10.6172H10.6171H10.6171H10.617H10.617H10.6169H10.6169H10.6168H10.6167H10.6167H10.6166H10.6166H10.6165H10.6164H10.6164H10.6163H10.6163H10.6162H10.6162H10.6161H10.616H10.616H10.6159H10.6159H10.6158H10.6158H10.6157H10.6156H10.6156H10.6155H10.6155H10.6154H10.6153H10.6153H10.6152H10.6152H10.6151H10.6151H10.615H10.6149H10.6149H10.6148H10.6148H10.6147H10.6147H10.6146H10.6145H10.6145H10.6144H10.6144H10.6143H10.6143H10.6142H10.6141H10.6141H10.614H10.614H10.6139H10.6138H10.6138H10.6137H10.6137H10.6136H10.6136H10.6135H10.6134H10.6134H10.6133H10.6133H10.6132H10.6132H10.6131H10.613H10.613H10.6129H10.6129H10.6128H10.6128H10.6127H10.6126H10.6126H10.6125H10.6125H10.6124H10.6123H10.6123H10.6122H10.6122H10.6121H10.6121H10.612H10.6119H10.6119H10.6118H10.6118H10.6117H10.6117H10.6116H10.6115H10.6115H10.6114H10.6114H10.6113H10.6112H10.6112H10.6111H10.6111H10.611H10.611H10.6109H10.6108H10.6108H10.6107H10.6107H10.6106H10.6106H10.6105H10.6104H10.6104H10.6103H10.6103H10.6102H10.6102H10.6101H10.61H10.61H10.6099H10.6099H10.6098H10.6097H10.6097H10.6096H10.6096H10.6095H10.6095H10.6094H10.6093H10.6093H10.6092H10.6092H10.6091H10.6091H10.609H10.6089H10.6089H10.6088H10.6088H10.6087H10.6086H10.6086H10.6085H10.6085H10.6084H10.6084H10.6083H10.6082H10.6082H10.6081H10.6081H10.608H10.608H10.6079H10.6078H10.6078H10.6077H10.6077H10.6076H10.6076H10.6075H10.6074H10.6074H10.6073H10.6073H10.6072H10.6071H10.6071H10.607H10.607H10.6069H10.6069H10.6068H10.6067H10.6067H10.6066H10.6066H10.6065H10.6065H10.6064H10.6063H10.6063H10.6062H10.6062H10.6061H10.606H10.606H10.6059H10.6059H10.6058H10.6058H10.6057H10.6056H10.6056H10.6055H10.6055H10.6054H10.6054H10.6053H10.6052H10.6052H10.6051H10.6051H10.605H10.605H10.6049H10.6048H10.6048H10.6047H10.6047H10.6046H10.6045H10.6045H10.6044H10.6044H10.6043H10.6043H10.6042H10.6041H10.6041H10.604H10.604H10.6039H10.6039H10.6038H10.6037H10.6037H10.6036H10.6036H10.6035Z" fill="#2B3A4E" stroke="#2B3A4E" stroke-width="0.833333"/>
<path d="M10.6134 21C8.68101 21 6.73876 20.507 5.26974 19.5211C3.89932 18.6141 3.15002 17.3718 3.15002 16.0211C3.15002 14.6704 3.89932 13.4183 5.26974 12.5014C8.22749 10.5394 13.019 10.5394 15.9571 12.5014C17.3176 13.4084 18.0768 14.6507 18.0768 16.0014C18.0768 17.3521 17.3275 18.6042 15.9571 19.5211C14.4782 20.507 12.5458 21 10.6134 21ZM6.08805 13.7436C5.14157 14.3746 4.6289 15.1831 4.6289 16.031C4.6289 16.869 5.15143 17.6774 6.08805 18.2986C8.54298 19.9451 12.6838 19.9451 15.1388 18.2986C16.0852 17.6676 16.5979 16.8591 16.5979 16.0112C16.5979 15.1732 16.0754 14.3648 15.1388 13.7436C12.6838 12.107 8.54298 12.107 6.08805 13.7436Z" fill="#2B3A4E"/>
</svg>
