<svg width="129" height="25" viewBox="0 0 129 25" fill="none" xmlns="http://www.w3.org/2000/svg">
<path d="M51.1158 15.5714C51.1158 16.4121 50.9446 17.1633 50.6021 17.8249C50.2674 18.4866 49.8042 19.0354 49.2126 19.4713C48.5276 19.985 47.7725 20.3509 46.9474 20.5689C46.1301 20.7868 45.0909 20.8958 43.8298 20.8958H36.2402V3.50979H42.9891C44.3903 3.50979 45.4139 3.5565 46.06 3.64991C46.7139 3.74332 47.36 3.9496 47.9983 4.26875C48.6599 4.60347 49.1503 5.05495 49.4695 5.6232C49.7964 6.18366 49.9599 6.82586 49.9599 7.54979C49.9599 8.39048 49.738 9.13387 49.2943 9.77996C48.8506 10.4183 48.224 10.9165 47.4144 11.2745V11.3679C48.5509 11.5937 49.45 12.0607 50.1117 12.7691C50.7811 13.4775 51.1158 14.4116 51.1158 15.5714ZM45.3711 8.42551C45.3711 8.1375 45.2971 7.84948 45.1492 7.56147C45.0091 7.27345 44.7561 7.05938 44.3903 6.91927C44.0633 6.79472 43.6547 6.72856 43.1643 6.72077C42.6817 6.7052 42.0005 6.69742 41.1209 6.69742H40.7006V10.3755H41.4012C42.1095 10.3755 42.7128 10.3638 43.211 10.3404C43.7092 10.3171 44.1023 10.2392 44.3903 10.1069C44.7951 9.92786 45.0597 9.69823 45.1843 9.418C45.3088 9.12998 45.3711 8.79915 45.3711 8.42551ZM46.4687 15.5013C46.4687 14.9487 46.3597 14.5244 46.1417 14.2286C45.9316 13.925 45.5696 13.6993 45.0558 13.5514C44.7055 13.4502 44.2229 13.3957 43.608 13.3879C42.993 13.3801 42.3508 13.3763 41.6814 13.3763H40.7006V17.7082H41.0275C42.2886 17.7082 43.1915 17.7043 43.7364 17.6965C44.2813 17.6887 44.7834 17.5875 45.2427 17.3929C45.7097 17.1983 46.0289 16.9414 46.2001 16.6223C46.3791 16.2953 46.4687 15.9217 46.4687 15.5013Z" fill="#111111"/>
<path d="M67.1357 15.116H57.5144C57.5767 16.1435 57.9659 16.9297 58.6821 17.4746C59.406 18.0195 60.4685 18.292 61.8697 18.292C62.7571 18.292 63.6172 18.1324 64.4502 17.8132C65.2831 17.4941 65.9408 17.1516 66.4234 16.7857H66.8905V20.1602C65.9408 20.5416 65.0456 20.8179 64.205 20.9892C63.3643 21.1605 62.434 21.2461 61.4143 21.2461C58.7833 21.2461 56.7672 20.6545 55.366 19.4713C53.9648 18.2881 53.2643 16.6028 53.2643 14.4154C53.2643 12.2514 53.9259 10.5389 55.2492 9.27788C56.5803 8.00906 58.4018 7.37464 60.7137 7.37464C62.8466 7.37464 64.4502 7.91565 65.5244 8.99765C66.5986 10.0719 67.1357 11.6209 67.1357 13.6448V15.116ZM62.9556 12.6523C62.9322 11.7727 62.7143 11.1111 62.3017 10.6674C61.8892 10.2237 61.247 10.0018 60.3751 10.0018C59.5656 10.0018 58.9 10.212 58.3785 10.6323C57.8569 11.0527 57.565 11.726 57.5028 12.6523H62.9556Z" fill="#111111"/>
<path d="M83.2723 20.8958H79.0455V14.3921C79.0455 13.8628 79.0183 13.3373 78.9638 12.8158C78.9093 12.2865 78.8159 11.8973 78.6836 11.6482C78.5279 11.3602 78.2982 11.15 77.9947 11.0176C77.6989 10.8853 77.2824 10.8192 76.7453 10.8192C76.3639 10.8192 75.9747 10.8814 75.5777 11.006C75.1885 11.1305 74.7642 11.329 74.3049 11.6015V20.8958H70.1015V2.72748H74.3049V9.23117C75.0522 8.64736 75.7684 8.19977 76.4534 7.8884C77.1462 7.57703 77.9129 7.42135 78.7536 7.42135C80.1703 7.42135 81.2757 7.83391 82.0697 8.65904C82.8714 9.48416 83.2723 10.718 83.2723 12.3604V20.8958Z" fill="#111111"/>
<path d="M100.553 14.3454C100.553 16.5016 99.9227 18.2025 98.6617 19.4479C97.4084 20.6856 95.6453 21.3045 93.3723 21.3045C91.0993 21.3045 89.3323 20.6856 88.0713 19.4479C86.818 18.2025 86.1914 16.5016 86.1914 14.3454C86.1914 12.1736 86.8219 10.4689 88.083 9.23117C89.3518 7.99349 91.1149 7.37464 93.3723 7.37464C95.6609 7.37464 97.4279 7.99738 98.6734 9.24285C99.9266 10.4883 100.553 12.1892 100.553 14.3454ZM95.3807 17.533C95.6531 17.1983 95.8555 16.7974 95.9878 16.3304C96.1279 15.8555 96.198 15.2017 96.198 14.3687C96.198 13.5981 96.1279 12.952 95.9878 12.4305C95.8477 11.9089 95.6531 11.4925 95.404 11.1811C95.1549 10.862 94.8552 10.6362 94.5049 10.5039C94.1546 10.3716 93.7771 10.3054 93.3723 10.3054C92.9676 10.3054 92.6056 10.3599 92.2864 10.4689C91.9751 10.5778 91.6754 10.7958 91.3874 11.1227C91.1305 11.4263 90.9242 11.8428 90.7685 12.3721C90.6206 12.9014 90.5467 13.567 90.5467 14.3687C90.5467 15.0849 90.6128 15.7076 90.7452 16.237C90.8775 16.7585 91.0721 17.1788 91.329 17.498C91.5781 17.8016 91.8739 18.0234 92.2164 18.1635C92.5667 18.3037 92.9637 18.3737 93.4074 18.3737C93.7888 18.3737 94.1507 18.3114 94.4933 18.1869C94.8435 18.0546 95.1393 17.8366 95.3807 17.533Z" fill="#111111"/>
<path d="M116.97 14.3454C116.97 16.5016 116.34 18.2025 115.079 19.4479C113.825 20.6856 112.062 21.3045 109.789 21.3045C107.516 21.3045 105.749 20.6856 104.488 19.4479C103.235 18.2025 102.608 16.5016 102.608 14.3454C102.608 12.1736 103.239 10.4689 104.5 9.23117C105.769 7.99349 107.532 7.37464 109.789 7.37464C112.078 7.37464 113.845 7.99738 115.09 9.24285C116.343 10.4883 116.97 12.1892 116.97 14.3454ZM111.798 17.533C112.07 17.1983 112.272 16.7974 112.405 16.3304C112.545 15.8555 112.615 15.2017 112.615 14.3687C112.615 13.5981 112.545 12.952 112.405 12.4305C112.265 11.9089 112.07 11.4925 111.821 11.1811C111.572 10.862 111.272 10.6362 110.922 10.5039C110.572 10.3716 110.194 10.3054 109.789 10.3054C109.384 10.3054 109.022 10.3599 108.703 10.4689C108.392 10.5778 108.092 10.7958 107.804 11.1227C107.547 11.4263 107.341 11.8428 107.185 12.3721C107.037 12.9014 106.964 13.567 106.964 14.3687C106.964 15.0849 107.03 15.7076 107.162 16.237C107.294 16.7585 107.489 17.1788 107.746 17.498C107.995 17.8016 108.291 18.0234 108.633 18.1635C108.984 18.3037 109.381 18.3737 109.824 18.3737C110.206 18.3737 110.568 18.3114 110.91 18.1869C111.26 18.0546 111.556 17.8366 111.798 17.533Z" fill="#111111"/>
<path d="M128.483 5.81002H128.168C127.981 5.75553 127.736 5.69326 127.432 5.6232C127.136 5.55314 126.817 5.51811 126.475 5.51811C125.649 5.51811 125.089 5.66601 124.793 5.96181C124.505 6.25761 124.361 6.82975 124.361 7.67823V7.78332H127.607V10.6323H124.501V20.8958H120.298V10.6323H118.5V7.78332H120.298V7.42135C120.298 5.81781 120.722 4.61515 121.571 3.81338C122.427 3.0116 123.719 2.61072 125.447 2.61072C126.07 2.61072 126.634 2.63407 127.14 2.68078C127.646 2.7197 128.094 2.77419 128.483 2.84424V5.81002Z" fill="#111111"/>
<path d="M0 25L1.69542 24.993L3.39067 24.9859L4.25816 24.0296C4.73534 23.5036 5.18193 23.0127 5.25073 22.9386C5.42314 22.7527 6.89713 21.1259 7.11806 20.8778C7.376 20.5878 11.8657 15.639 11.9376 15.5652C11.9707 15.5314 12.2621 15.2097 12.5853 14.8504C12.9085 14.4911 13.1881 14.1971 13.2065 14.1971C13.2249 14.1971 13.5045 14.4911 13.8277 14.8504C14.1509 15.2097 14.4428 15.5317 14.4763 15.5661C14.5488 15.6405 19.0355 20.586 19.2952 20.8778C19.5144 21.1242 20.9887 22.7513 21.1625 22.9386C21.2311 23.0127 21.6777 23.5036 22.1549 24.0296L23.0224 24.9859L24.7176 24.993L26.413 25V12.5001V0L24.7188 0.00703172L23.0247 0.0140634L22.7896 0.269975C22.6605 0.410716 22.4012 0.695607 22.2137 0.903043C22.0261 1.11048 21.6826 1.48923 21.4504 1.74483C21.2179 2.00042 20.8356 2.42168 20.6004 2.681C19.5903 3.7951 19.3014 4.11345 18.8033 4.66096C18.5134 4.97952 18.2067 5.31886 18.1219 5.41517C18.037 5.51148 17.8071 5.76612 17.6111 5.9809C17.2159 6.41399 16.5054 7.19739 16.2064 7.52991C16.0997 7.64838 15.9119 7.85443 15.7889 7.98782C15.5559 8.24011 14.633 9.25918 14.3615 9.56367C14.2757 9.65998 14.0612 9.8964 13.8845 10.089C13.708 10.2817 13.492 10.521 13.4045 10.6211C13.3075 10.7318 13.2575 10.7877 13.2081 10.7889C13.1576 10.7901 13.1077 10.7341 13.0086 10.6211C12.921 10.521 12.705 10.2817 12.5285 10.089C12.3521 9.8964 12.1374 9.65998 12.0515 9.56367C11.78 9.25918 10.8571 8.24011 10.6242 7.98782C10.5011 7.85443 10.3133 7.64838 10.2067 7.52991C9.90764 7.19739 9.19735 6.41399 8.80198 5.9809C8.6059 5.76612 8.37601 5.51148 8.29116 5.41517C8.2063 5.31886 7.89967 4.97952 7.60978 4.66096C7.31988 4.34241 6.89595 3.87565 6.66758 3.62379C6.43921 3.37192 6.06007 2.95375 5.82494 2.69443C5.58998 2.43511 5.20475 2.01086 4.96895 1.75164C4.73331 1.49232 4.38696 1.11048 4.19933 0.903043C4.01187 0.695607 3.75274 0.410716 3.62343 0.269975L3.3883 0.0140634L1.69424 0.00703172L0 0V12.5001V25ZM5.94479 6.1518C6.0528 6.27261 7.37803 7.735 8.88971 9.40152C10.4014 11.0679 11.6463 12.451 11.6563 12.4751C11.6749 12.5197 11.5676 12.649 10.9428 13.3351C10.7472 13.5499 10.3977 13.9348 10.1659 14.1904C9.93418 14.4459 9.55436 14.8642 9.32193 15.1198C8.73268 15.7676 7.88057 16.7089 7.69396 16.9179C7.60809 17.0142 7.37769 17.2687 7.18195 17.4836C6.82275 17.8779 6.34371 18.4058 5.5506 19.2817C5.02828 19.8584 4.87733 20.0246 4.54129 20.3929C4.01661 20.9682 3.22738 21.8404 3.04702 22.0447C2.82052 22.3012 2.65588 22.4672 2.62798 22.4672C2.61649 22.4672 2.60719 17.9819 2.60719 12.5001C2.60719 7.01808 2.62156 2.53312 2.63914 2.53344C2.65689 2.53387 3.36362 3.29862 4.20981 4.23309C5.05617 5.16746 5.83677 6.03098 5.94479 6.1518ZM23.7851 22.4672C23.757 22.4672 23.5917 22.3004 23.3664 22.0447C23.2036 21.86 22.8838 21.5067 21.8709 20.3929C21.4279 19.9057 21.3075 19.7731 20.8624 19.2817C20.6244 19.0188 20.2394 18.5944 20.0071 18.3389C19.3139 17.5764 18.8856 17.1036 18.7194 16.9179C18.5257 16.7013 17.655 15.7399 17.0974 15.1265C16.8683 14.8746 16.4885 14.4564 16.2534 14.1971C16.0182 13.9378 15.6658 13.5499 15.4702 13.3351C14.8455 12.649 14.7381 12.5197 14.7567 12.4751C14.7667 12.451 16.0117 11.0679 17.5233 9.40152C19.035 7.735 20.3602 6.27261 20.4683 6.1518C21.5717 4.91698 23.7487 2.53398 23.7739 2.53344C23.7915 2.53312 23.8059 7.01808 23.8059 12.5001C23.8059 17.9819 23.7966 22.4672 23.7851 22.4672Z" fill="#FF4D4D"/>
<path d="M26.3853 0V24.9859H22.997L11.6305 12.493L13.3767 10.607L22.997 0H26.3853ZM23.7781 2.51938L14.7271 12.4859L23.7781 22.4531V2.51938Z" fill="#FFC5BB"/>
</svg>
